<mxfile host="Electron" modified="2023-08-30T20:25:13.118Z" agent="Mozilla/5.0 (Windows NT 10.0; Win64; x64) AppleWebKit/537.36 (KHTML, like Gecko) draw.io/21.2.8 Chrome/112.0.5615.165 Electron/24.2.0 Safari/537.36" etag="ZzPG-ULfIZ3v4Yg3a_aQ" version="21.2.8" type="device">
  <diagram name="Page-1" id="9QSo3kaSskvXhXrgpXem">
    <mxGraphModel dx="864" dy="516" grid="1" gridSize="10" guides="1" tooltips="1" connect="1" arrows="1" fold="1" page="1" pageScale="1" pageWidth="850" pageHeight="1100" math="0" shadow="0">
      <root>
        <mxCell id="0" />
        <mxCell id="1" parent="0" />
        <mxCell id="DptQW8LMblBTpzsEBDTj-9" style="edgeStyle=orthogonalEdgeStyle;rounded=0;orthogonalLoop=1;jettySize=auto;html=1;exitX=1;exitY=0.5;exitDx=0;exitDy=0;entryX=0;entryY=0.5;entryDx=0;entryDy=0;" parent="1" source="DptQW8LMblBTpzsEBDTj-2" target="DptQW8LMblBTpzsEBDTj-8" edge="1">
          <mxGeometry relative="1" as="geometry" />
        </mxCell>
        <mxCell id="DptQW8LMblBTpzsEBDTj-2" value="CHURCH" style="whiteSpace=wrap;html=1;align=center;" parent="1" vertex="1">
          <mxGeometry x="90" y="240" width="100" height="40" as="geometry" />
        </mxCell>
        <mxCell id="DptQW8LMblBTpzsEBDTj-11" style="edgeStyle=orthogonalEdgeStyle;rounded=0;orthogonalLoop=1;jettySize=auto;html=1;exitX=1;exitY=0.5;exitDx=0;exitDy=0;entryX=0;entryY=0.5;entryDx=0;entryDy=0;" parent="1" source="DptQW8LMblBTpzsEBDTj-8" edge="1">
          <mxGeometry relative="1" as="geometry">
            <mxPoint x="410" y="260" as="targetPoint" />
          </mxGeometry>
        </mxCell>
        <mxCell id="DptQW8LMblBTpzsEBDTj-8" value="PASTOR" style="whiteSpace=wrap;html=1;align=center;" parent="1" vertex="1">
          <mxGeometry x="250" y="240" width="100" height="40" as="geometry" />
        </mxCell>
        <mxCell id="TVYxTqgzYjFWrgvmWUA3-15" style="edgeStyle=orthogonalEdgeStyle;rounded=0;orthogonalLoop=1;jettySize=auto;html=1;exitX=1;exitY=1;exitDx=0;exitDy=0;exitPerimeter=0;entryX=0.5;entryY=1;entryDx=0;entryDy=0;" parent="1" source="DptQW8LMblBTpzsEBDTj-17" target="TVYxTqgzYjFWrgvmWUA3-14" edge="1">
          <mxGeometry relative="1" as="geometry" />
        </mxCell>
        <mxCell id="TVYxTqgzYjFWrgvmWUA3-18" style="edgeStyle=orthogonalEdgeStyle;rounded=0;orthogonalLoop=1;jettySize=auto;html=1;exitX=1;exitY=0;exitDx=0;exitDy=0;exitPerimeter=0;entryX=0.44;entryY=1.025;entryDx=0;entryDy=0;entryPerimeter=0;" parent="1" source="DptQW8LMblBTpzsEBDTj-17" target="TVYxTqgzYjFWrgvmWUA3-16" edge="1">
          <mxGeometry relative="1" as="geometry" />
        </mxCell>
        <mxCell id="DptQW8LMblBTpzsEBDTj-17" value="" style="strokeWidth=2;html=1;shape=mxgraph.flowchart.annotation_2;align=left;labelPosition=right;pointerEvents=1;rotation=-90;" parent="1" vertex="1">
          <mxGeometry x="112.5" y="157.5" width="65" height="100" as="geometry" />
        </mxCell>
        <mxCell id="DptQW8LMblBTpzsEBDTj-24" style="edgeStyle=orthogonalEdgeStyle;rounded=0;orthogonalLoop=1;jettySize=auto;html=1;exitX=1;exitY=1;exitDx=0;exitDy=0;exitPerimeter=0;entryX=0.5;entryY=0;entryDx=0;entryDy=0;" parent="1" source="DptQW8LMblBTpzsEBDTj-21" edge="1">
          <mxGeometry relative="1" as="geometry">
            <mxPoint x="220" y="370" as="targetPoint" />
          </mxGeometry>
        </mxCell>
        <mxCell id="DptQW8LMblBTpzsEBDTj-26" style="edgeStyle=orthogonalEdgeStyle;rounded=0;orthogonalLoop=1;jettySize=auto;html=1;exitX=1;exitY=0;exitDx=0;exitDy=0;exitPerimeter=0;entryX=0.5;entryY=0;entryDx=0;entryDy=0;" parent="1" source="DptQW8LMblBTpzsEBDTj-21" edge="1">
          <mxGeometry relative="1" as="geometry">
            <mxPoint x="335" y="420" as="targetPoint" />
          </mxGeometry>
        </mxCell>
        <mxCell id="DptQW8LMblBTpzsEBDTj-21" value="" style="strokeWidth=2;html=1;shape=mxgraph.flowchart.annotation_2;align=left;labelPosition=right;pointerEvents=1;rotation=90;" parent="1" vertex="1">
          <mxGeometry x="260.5" y="266.5" width="75" height="104" as="geometry" />
        </mxCell>
        <mxCell id="TVYxTqgzYjFWrgvmWUA3-3" style="edgeStyle=orthogonalEdgeStyle;rounded=0;orthogonalLoop=1;jettySize=auto;html=1;exitX=1;exitY=0.5;exitDx=0;exitDy=0;entryX=0;entryY=0.5;entryDx=0;entryDy=0;" parent="1" source="TVYxTqgzYjFWrgvmWUA3-1" target="TVYxTqgzYjFWrgvmWUA3-2" edge="1">
          <mxGeometry relative="1" as="geometry" />
        </mxCell>
        <mxCell id="TVYxTqgzYjFWrgvmWUA3-1" value="PREACHES" style="shape=rhombus;perimeter=rhombusPerimeter;whiteSpace=wrap;html=1;align=center;" parent="1" vertex="1">
          <mxGeometry x="410" y="230" width="120" height="60" as="geometry" />
        </mxCell>
        <mxCell id="TVYxTqgzYjFWrgvmWUA3-5" style="edgeStyle=orthogonalEdgeStyle;rounded=0;orthogonalLoop=1;jettySize=auto;html=1;exitX=0;exitY=0;exitDx=0;exitDy=0;entryX=0.5;entryY=1;entryDx=0;entryDy=0;" parent="1" source="TVYxTqgzYjFWrgvmWUA3-2" edge="1">
          <mxGeometry relative="1" as="geometry">
            <mxPoint x="550" y="160" as="targetPoint" />
          </mxGeometry>
        </mxCell>
        <mxCell id="TVYxTqgzYjFWrgvmWUA3-9" style="edgeStyle=orthogonalEdgeStyle;rounded=0;orthogonalLoop=1;jettySize=auto;html=1;exitX=0.5;exitY=1;exitDx=0;exitDy=0;entryX=0.5;entryY=0;entryDx=0;entryDy=0;" parent="1" source="TVYxTqgzYjFWrgvmWUA3-2" target="TVYxTqgzYjFWrgvmWUA3-8" edge="1">
          <mxGeometry relative="1" as="geometry" />
        </mxCell>
        <mxCell id="TVYxTqgzYjFWrgvmWUA3-23" style="edgeStyle=orthogonalEdgeStyle;rounded=0;orthogonalLoop=1;jettySize=auto;html=1;exitX=1;exitY=0.5;exitDx=0;exitDy=0;" parent="1" source="TVYxTqgzYjFWrgvmWUA3-2" target="TVYxTqgzYjFWrgvmWUA3-20" edge="1">
          <mxGeometry relative="1" as="geometry" />
        </mxCell>
        <mxCell id="TVYxTqgzYjFWrgvmWUA3-2" value="SERMON" style="whiteSpace=wrap;html=1;align=center;" parent="1" vertex="1">
          <mxGeometry x="580" y="240" width="100" height="40" as="geometry" />
        </mxCell>
        <mxCell id="TVYxTqgzYjFWrgvmWUA3-11" style="edgeStyle=orthogonalEdgeStyle;rounded=0;orthogonalLoop=1;jettySize=auto;html=1;exitX=0.5;exitY=1;exitDx=0;exitDy=0;entryX=0.5;entryY=0;entryDx=0;entryDy=0;" parent="1" source="TVYxTqgzYjFWrgvmWUA3-8" target="TVYxTqgzYjFWrgvmWUA3-10" edge="1">
          <mxGeometry relative="1" as="geometry" />
        </mxCell>
        <mxCell id="TVYxTqgzYjFWrgvmWUA3-8" value="REACHES" style="shape=rhombus;perimeter=rhombusPerimeter;whiteSpace=wrap;html=1;align=center;" parent="1" vertex="1">
          <mxGeometry x="580" y="340" width="120" height="60" as="geometry" />
        </mxCell>
        <mxCell id="TVYxTqgzYjFWrgvmWUA3-10" value="MEMBERS" style="whiteSpace=wrap;html=1;align=center;" parent="1" vertex="1">
          <mxGeometry x="700" y="440" width="100" height="40" as="geometry" />
        </mxCell>
        <mxCell id="TVYxTqgzYjFWrgvmWUA3-28" style="edgeStyle=orthogonalEdgeStyle;rounded=0;orthogonalLoop=1;jettySize=auto;html=1;exitX=1;exitY=1;exitDx=0;exitDy=0;exitPerimeter=0;entryX=0.5;entryY=0;entryDx=0;entryDy=0;" parent="1" source="TVYxTqgzYjFWrgvmWUA3-12" target="TVYxTqgzYjFWrgvmWUA3-26" edge="1">
          <mxGeometry relative="1" as="geometry" />
        </mxCell>
        <mxCell id="TVYxTqgzYjFWrgvmWUA3-30" style="edgeStyle=orthogonalEdgeStyle;rounded=0;orthogonalLoop=1;jettySize=auto;html=1;exitX=1;exitY=0;exitDx=0;exitDy=0;exitPerimeter=0;" parent="1" source="TVYxTqgzYjFWrgvmWUA3-12" target="TVYxTqgzYjFWrgvmWUA3-29" edge="1">
          <mxGeometry relative="1" as="geometry" />
        </mxCell>
        <mxCell id="TVYxTqgzYjFWrgvmWUA3-33" style="edgeStyle=orthogonalEdgeStyle;rounded=0;orthogonalLoop=1;jettySize=auto;html=1;exitX=0.5;exitY=1;exitDx=0;exitDy=0;exitPerimeter=0;entryX=0.5;entryY=0;entryDx=0;entryDy=0;" parent="1" source="TVYxTqgzYjFWrgvmWUA3-12" target="TVYxTqgzYjFWrgvmWUA3-32" edge="1">
          <mxGeometry relative="1" as="geometry" />
        </mxCell>
        <mxCell id="TVYxTqgzYjFWrgvmWUA3-12" value="" style="strokeWidth=2;html=1;shape=mxgraph.flowchart.annotation_2;align=left;labelPosition=right;pointerEvents=1;rotation=90;" parent="1" vertex="1">
          <mxGeometry x="714.5" y="463" width="75" height="110" as="geometry" />
        </mxCell>
        <mxCell id="TVYxTqgzYjFWrgvmWUA3-14" value="CHURCH&amp;nbsp;&lt;br&gt;ADDRESS" style="ellipse;whiteSpace=wrap;html=1;align=center;" parent="1" vertex="1">
          <mxGeometry x="170" y="100" width="100" height="40" as="geometry" />
        </mxCell>
        <mxCell id="TVYxTqgzYjFWrgvmWUA3-16" value="Attribute" style="ellipse;whiteSpace=wrap;html=1;align=center;" parent="1" vertex="1">
          <mxGeometry x="15" y="70" width="100" height="40" as="geometry" />
        </mxCell>
        <mxCell id="TVYxTqgzYjFWrgvmWUA3-19" value="SERMON&amp;nbsp;&lt;br&gt;TOPIC" style="ellipse;whiteSpace=wrap;html=1;align=center;" parent="1" vertex="1">
          <mxGeometry x="500" y="120" width="100" height="40" as="geometry" />
        </mxCell>
        <mxCell id="TVYxTqgzYjFWrgvmWUA3-20" value="SERMON&amp;nbsp;&lt;br&gt;SCRIPTURES" style="ellipse;whiteSpace=wrap;html=1;align=center;" parent="1" vertex="1">
          <mxGeometry x="637" y="70" width="100" height="40" as="geometry" />
        </mxCell>
        <mxCell id="TVYxTqgzYjFWrgvmWUA3-24" value="PASTOR&lt;br&gt;NAME" style="ellipse;whiteSpace=wrap;html=1;align=center;" parent="1" vertex="1">
          <mxGeometry x="170" y="370.5" width="100" height="40" as="geometry" />
        </mxCell>
        <mxCell id="TVYxTqgzYjFWrgvmWUA3-25" value="PASTOR&lt;br&gt;ADDRESS" style="ellipse;whiteSpace=wrap;html=1;align=center;" parent="1" vertex="1">
          <mxGeometry x="280" y="423" width="100" height="40" as="geometry" />
        </mxCell>
        <mxCell id="TVYxTqgzYjFWrgvmWUA3-26" value="MEMBERS NAME" style="ellipse;whiteSpace=wrap;html=1;align=center;" parent="1" vertex="1">
          <mxGeometry x="570" y="580" width="100" height="37" as="geometry" />
        </mxCell>
        <mxCell id="TVYxTqgzYjFWrgvmWUA3-29" value="MEMBERS&amp;nbsp;&lt;br&gt;ADDRESS" style="ellipse;whiteSpace=wrap;html=1;align=center;" parent="1" vertex="1">
          <mxGeometry x="730" y="640" width="100" height="40" as="geometry" />
        </mxCell>
        <mxCell id="TVYxTqgzYjFWrgvmWUA3-32" value="MEMBERS&amp;nbsp;&lt;br&gt;CONTACT" style="ellipse;whiteSpace=wrap;html=1;align=center;" parent="1" vertex="1">
          <mxGeometry x="420" y="650" width="100" height="40" as="geometry" />
        </mxCell>
        <mxCell id="TVYxTqgzYjFWrgvmWUA3-35" value="1" style="text;strokeColor=none;fillColor=none;spacingLeft=4;spacingRight=4;overflow=hidden;rotatable=0;points=[[0,0.5],[1,0.5]];portConstraint=eastwest;fontSize=12;whiteSpace=wrap;html=1;" parent="1" vertex="1">
          <mxGeometry x="150" y="210" width="40" height="30" as="geometry" />
        </mxCell>
        <mxCell id="TVYxTqgzYjFWrgvmWUA3-36" value="M&amp;nbsp;&amp;nbsp;&lt;br&gt;" style="text;strokeColor=none;fillColor=none;spacingLeft=4;spacingRight=4;overflow=hidden;rotatable=0;points=[[0,0.5],[1,0.5]];portConstraint=eastwest;fontSize=12;whiteSpace=wrap;html=1;" parent="1" vertex="1">
          <mxGeometry x="200" y="236.5" width="40" height="30" as="geometry" />
        </mxCell>
        <mxCell id="TVYxTqgzYjFWrgvmWUA3-37" value="1" style="text;strokeColor=none;fillColor=none;spacingLeft=4;spacingRight=4;overflow=hidden;rotatable=0;points=[[0,0.5],[1,0.5]];portConstraint=eastwest;fontSize=12;whiteSpace=wrap;html=1;" parent="1" vertex="1">
          <mxGeometry x="365" y="239" width="40" height="30" as="geometry" />
        </mxCell>
        <mxCell id="TVYxTqgzYjFWrgvmWUA3-38" value="M" style="text;strokeColor=none;fillColor=none;spacingLeft=4;spacingRight=4;overflow=hidden;rotatable=0;points=[[0,0.5],[1,0.5]];portConstraint=eastwest;fontSize=12;whiteSpace=wrap;html=1;" parent="1" vertex="1">
          <mxGeometry x="538" y="238.5" width="40" height="30" as="geometry" />
        </mxCell>
        <mxCell id="TVYxTqgzYjFWrgvmWUA3-39" value="M" style="text;strokeColor=none;fillColor=none;spacingLeft=4;spacingRight=4;overflow=hidden;rotatable=0;points=[[0,0.5],[1,0.5]];portConstraint=eastwest;fontSize=12;whiteSpace=wrap;html=1;" parent="1" vertex="1">
          <mxGeometry x="700" y="399" width="40" height="30" as="geometry" />
        </mxCell>
      </root>
    </mxGraphModel>
  </diagram>
</mxfile>
